#!OML:ASF H:\Terrain\Patient Classification 1\Animal2\Wednesday\Animal2.ASF
:FULLY-SPECIFIED
:DEGREES
1336
root 7.94043 16.0964 -19.3888 21.3394 -3.62691 6.33349
lowerback 23.3166 -5.40522 -1.63798
upperback 10.9973 -7.03782 4.86506
thorax 0.0729402 -3.73738 7.75941
lowerneck 5.74882 8.71291 14.5303
upperneck 3.73584 13.2083 -25.3068
head 2.84729 6.79782 -10.105
rclavicle 5.96354e-015 -9.74045e-015
rhumerus 31.8757 -17.7069 -51.161
rradius 142.937
rwrist -51.6395
rhand 32.7886 40.8881
rfingers 7.12502
rthumb 56.195 23.6506
lclavicle 5.96354e-015 -9.74045e-015
lhumerus -318.535 -16.0843 396.929
lradius 107.32
lwrist -8.23246
lhand -17.3188 10.6856
lfingers 7.12502
lthumb 8.92776 40.4767
rfemur -55.252 -3.01481 -4.78199
rtibia 57.2761
rfoot -23.7395 -4.22091
rtoes -24.7107
lfemur -42.6545 4.92769 3.10524
ltibia 47.7156
lfoot -8.77248 -3.78939
ltoes -38.3687
1337
root 7.92042 16.0793 -19.3675 21.3417 -3.7552 6.5698
lowerback 23.2523 -5.53528 -1.68447
upperback 11.0519 -7.21267 5.00148
thorax 0.220197 -3.83903 7.96003
lowerneck 5.69321 8.87065 14.209
upperneck 3.57598 13.3717 -25.2183
head 2.81774 6.87868 -9.99939
rclavicle -1.74931e-014 -2.5842e-015
rhumerus 34.0949 -19.0328 -51.1333
rradius 141.066
rwrist -52.8248
rhand 32.4924 40.2895
rfingers 7.12502
rthumb 55.9327 22.8476
lclavicle -1.74931e-014 -2.5842e-015
lhumerus -320.14 -17.5071 397.747
lradius 108.748
lwrist -8.85741
lhand -15.5701 9.55501
lfingers 7.12502
lthumb 10.6149 39.2669
rfemur -55.4626 -3.19435 -4.92242
rtibia 57.7206
rfoot -23.99 -4.27271
rtoes -24.9792
lfemur -42.6518 4.84354 3.02787
ltibia 47.2459
lfoot -8.9321 -3.69535
ltoes -39.6743
1338
root 7.90457 16.0638 -19.3464 21.2533 -3.96164 6.7163
lowerback 23.2892 -5.48423 -1.60376
upperback 11.1454 -7.13365 5.03498
thorax 0.289122 -3.80226 7.93362
lowerneck 5.50141 8.83214 14.7013
upperneck 3.584 13.3449 -25.2942
head 2.88957 6.86146 -10.1028
rclavicle 4.57205e-014 1.59028e-015
rhumerus 34.592 -19.8899 -51.1853
rradius 140.419
rwrist -53.1235
rhand 32.3933 39.9414
rfingers 7.12502
rthumb 55.8448 22.4319
lclavicle 4.57205e-014 1.59028e-015
lhumerus -321.237 -19.252 398.039
lradius 110.07
lwrist -8.91761
lhand -13.8358 9.08934
lfingers 7.12502
lthumb 12.2874 38.7083
rfemur -55.5859 -3.23943 -5.00472
rtibia 58.1259
rfoot -24.2464 -4.40732
rtoes -26.3698
lfemur -42.4986 4.85606 3.01312
ltibia 46.7346
lfoot -8.66847 -3.11048
ltoes -41.2902
1339
root 7.89095 16.0472 -19.3298 21.1542 -4.23887 6.7067
lowerback 23.6208 -5.67389 -1.89848
upperback 11.1205 -7.41948 5.35665
thorax 0.241769 -3.97386 8.55594
lowerneck 5.70949 9.14757 14.1574
upperneck 3.26455 13.7167 -25.472
head 2.81693 7.06729 -10.0506
rclavicle -3.85642e-014 1.94809e-014
rhumerus 34.605 -19.3184 -51.4195
rradius 140.941
rwrist -53.1549
rhand 32.3716 40.1586
rfingers 7.12502
rthumb 55.8256 22.6344
lclavicle -3.85642e-014 1.94809e-014
lhumerus -323.743 -20.4982 399.133
lradius 111.269
lwrist -8.61338
lhand -11.8449 9.11906
lfingers 7.12502
lthumb 14.2064 38.6132
rfemur -55.7288 -3.06763 -4.98483
rtibia 58.4733
rfoot -24.7794 -3.61226
rtoes -24.2176
lfemur -42.261 5.00851 3.14056
ltibia 46.1902
lfoot -8.42179 -3.01852
ltoes -41.8331
1340
root 7.88723 16.0266 -19.3108 21.3927 -4.53087 6.72787
lowerback 23.4103 -5.3563 -1.32488
upperback 10.9907 -6.90498 5.24163
thorax 0.0182311 -3.674 7.98281
lowerneck 5.68996 8.71962 15.5668
upperneck 3.46989 13.2595 -25.5222
head 2.88498 6.85081 -10.3554
rclavicle 4.77083e-014 4.77083e-015
rhumerus 32.0311 -20.4015 -51.3286
rradius 142.094
rwrist -52.9358
rhand 32.3734 40.8695
rfingers 7.12502
rthumb 55.8272 23.3466
lclavicle 4.77083e-014 4.77083e-015
lhumerus -324.382 -23.8242 400.013
lradius 111.94
lwrist -8.87686
lhand -10.0976 9.27573
lfingers 7.12502
lthumb 15.8897 38.6438
rfemur -56.2509 -3.0931 -5.03957
rtibia 58.773
rfoot -24.5351 -4.328
rtoes -28.6796
lfemur -42.3882 5.07443 3.24415
ltibia 45.6258
lfoot -8.21065 -3.70814
ltoes -39.6118
1341
root 7.88628 16.0106 -19.2878 21.5826 -4.79205 6.85544
lowerback 23.2587 -5.75431 -1.74562
upperback 10.8284 -7.48941 5.60573
thorax 0.121513 -4.0024 8.73643
lowerneck 6.45102 9.13005 14.0347
upperneck 2.93169 13.6695 -25.2451
head 2.55575 7.10373 -10.0012
rclavicle 1.55052e-014 -3.83654e-014
rhumerus 31.9544 -19.296 -51.6457
rradius 142.665
rwrist -53.1517
rhand 32.6246 41.32
rfingers 7.12502
rthumb 56.0498 23.9689
lclavicle 1.55052e-014 -3.83654e-014
lhumerus -327.852 -24.4002 401.849
lradius 112.711
lwrist -8.26003
lhand -8.35274 9.26058
lfingers 7.12502
lthumb 17.5694 38.4867
rfemur -56.6795 -3.20019 -5.20433
rtibia 59.018
rfoot -24.4463 -3.95739
rtoes -27.9155
lfemur -42.4658 5.01234 3.23871
ltibia 45.0077
lfoot -8.34653 -3.89187
ltoes -39.0956
